<svg width="75" height="65" viewBox="0 0 75 65" fill="none" xmlns="http://www.w3.org/2000/svg">
<path d="M14.0144 18.9059L11.2591 21.5413L16.4718 26.5271L19.2271 23.8918L14.0144 18.9059Z" fill="#FDFDFD"/>
<path d="M11.387 8.19648L8.45223 11.1158L10.6826 18.3018L3.16966 16.0562L0.00012207 18.9755L11.8565 22.1193L14.3217 19.3123L11.387 8.19648Z" fill="#FDFDFD"/>
<path d="M25.1216 2.35783L21.4825 3.1438L24.2999 13.6982C25.239 17.0667 27.4619 18.5384 32.5172 17.7403C36.4953 16.4772 38.2693 14.821 37.7998 11.0035L35.2172 -7.24792e-05L31.3433 0.898177L33.8085 10.1052C34.5129 13.0245 33.8205 14.2408 31.5781 14.7088C29.6848 14.9039 28.4086 14.2596 27.939 12.8L25.1216 2.35783Z" fill="#FDFDFD"/>
<path d="M59.7235 3.73195L46.1099 0.242939L45.2636 3.26379L58.8773 6.7528L59.7235 3.73195Z" fill="#FDFDFD"/>
<path d="M54.1298 4.65975L50.4157 3.70786L46.6021 17.3208L50.3163 18.2727L54.1298 4.65975Z" fill="#FDFDFD"/>
<path fill-rule="evenodd" clip-rule="evenodd" d="M71.256 11.6771L74.0734 14.1473C71.6023 20.5204 70.061 24.0543 67.1473 30.3158L64.2126 27.621L65.856 24.3649L60.9257 19.9859L57.5213 21.6701L54.704 19.0877C61.0496 15.8742 64.6718 14.2466 71.256 11.6771ZM69.9647 15.4948L67.2647 21.6703L63.743 18.4141L69.9647 15.4948Z" fill="#FDFDFD"/>
<path d="M56.2538 30.8874L39.2237 21.3453C38.3445 20.8526 37.2551 20.8526 36.3758 21.3453L19.3542 30.8827C18.4912 31.3662 17.9608 32.2512 17.9608 33.2078V51.9931C17.9608 52.9608 18.5032 53.8541 19.3819 54.3337L36.4951 63.6733C37.3744 64.1532 38.4551 64.1449 39.3261 63.652L56.3651 54.0086C57.2267 53.5211 57.7529 52.6327 57.7477 51.6754L57.6472 33.1984C57.642 32.2467 57.1124 31.3684 56.2538 30.8874Z" fill="#FDFDFD"/>
<path d="M50.3606 32.4492H25.239V54.4563H50.3606V32.4492Z" fill="#FDFDFD"/>
<path d="M49.4214 33.3475H26.4129V53.5581H49.4214V33.3475Z" fill="#D96A10"/>
<path d="M25.9434 37.6141H50.1258" stroke="#FDFDFD" stroke-width="4"/>
<path d="M31.8129 33.0106C31.8129 34.4368 31.6955 35.4808 30.4042 35.4808C29.3477 35.4808 28.9955 34.4368 28.9955 33.0106C28.9955 31.5844 29.2047 30.4281 30.4042 30.4281C31.6955 30.4281 31.8129 31.5844 31.8129 33.0106Z" fill="#FDFDFD"/>
<path d="M30.9911 32.8983C30.9911 33.7665 30.9911 34.6948 30.4042 34.6948C29.6998 34.6948 29.8172 33.7665 29.8172 32.8983C29.8172 32.0302 29.8172 31.2141 30.4042 31.2141C30.9911 31.2141 30.9911 32.0302 30.9911 32.8983Z" fill="#FDFDFD"/>
<path d="M36.7433 33.0106C36.7433 34.4368 36.6259 35.4808 35.3346 35.4808C34.2781 35.4808 33.9259 34.4368 33.9259 33.0106C33.9259 31.5844 34.1351 30.4281 35.3346 30.4281C36.6259 30.4281 36.7433 31.5844 36.7433 33.0106Z" fill="#FDFDFD"/>
<path d="M35.9215 32.8983C35.9215 33.7665 35.9215 34.6948 35.3346 34.6948C34.6302 34.6948 34.7476 33.7665 34.7476 32.8983C34.7476 32.0302 34.7476 31.2141 35.3346 31.2141C35.9215 31.2141 35.9215 32.0302 35.9215 32.8983Z" fill="#FDFDFD"/>
<path d="M41.9084 33.0106C41.9084 34.4368 41.7911 35.4808 40.4998 35.4808C39.4432 35.4808 39.0911 34.4368 39.0911 33.0106C39.0911 31.5844 39.3003 30.4281 40.4998 30.4281C41.7911 30.4281 41.9084 31.5844 41.9084 33.0106Z" fill="#FDFDFD"/>
<path d="M41.0867 32.8983C41.0867 33.7665 41.0867 34.6948 40.4998 34.6948C39.7954 34.6948 39.9128 33.7665 39.9128 32.8983C39.9128 32.0302 39.9128 31.2141 40.4998 31.2141C41.0867 31.2141 41.0867 32.0302 41.0867 32.8983Z" fill="#FDFDFD"/>
<path d="M46.8388 33.0106C46.8388 34.4368 46.7214 35.4808 45.4302 35.4808C44.3736 35.4808 44.0215 34.4368 44.0215 33.0106C44.0215 31.5844 44.2307 30.4281 45.4302 30.4281C46.7214 30.4281 46.8388 31.5844 46.8388 33.0106Z" fill="#FDFDFD"/>
<path d="M46.0171 32.8983C46.0171 33.7665 46.0171 34.6948 45.4302 34.6948C44.7258 34.6948 44.8432 33.7665 44.8432 32.8983C44.8432 32.0302 44.8432 31.2141 45.4302 31.2141C46.0171 31.2141 46.0171 32.0302 46.0171 32.8983Z" fill="#FDFDFD"/>
<path d="M46.6041 44.351H44.0215C43.8918 44.351 43.7867 44.4515 43.7867 44.5756V47.0457C43.7867 47.1698 43.8918 47.2703 44.0215 47.2703H46.6041C46.7337 47.2703 46.8388 47.1698 46.8388 47.0457V44.5756C46.8388 44.4515 46.7337 44.351 46.6041 44.351Z" fill="#FDFDFD"/>
<path d="M45.6649 45.2492H44.9606C44.8309 45.2492 44.7258 45.3498 44.7258 45.4738V46.1475C44.7258 46.2715 44.8309 46.3721 44.9606 46.3721H45.6649C45.7946 46.3721 45.8997 46.2715 45.8997 46.1475V45.4738C45.8997 45.3498 45.7946 45.2492 45.6649 45.2492Z" fill="#FDFDFD"/>
<path d="M31.8129 48.8422H29.2303C29.1006 48.8422 28.9955 48.9428 28.9955 49.0668V51.537C28.9955 51.661 29.1006 51.7615 29.2303 51.7615H31.8129C31.9425 51.7615 32.0477 51.661 32.0477 51.537V49.0668C32.0477 48.9428 31.9425 48.8422 31.8129 48.8422Z" fill="#FDFDFD"/>
<path d="M30.8737 49.7405H30.1694C30.0397 49.7405 29.9346 49.841 29.9346 49.9651V50.6388C29.9346 50.7628 30.0397 50.8633 30.1694 50.8633H30.8737C31.0034 50.8633 31.1085 50.7628 31.1085 50.6388V49.9651C31.1085 49.841 31.0034 49.7405 30.8737 49.7405Z" fill="#FDFDFD"/>
<path d="M36.7433 48.8422H34.1607C34.031 48.8422 33.9259 48.9428 33.9259 49.0668V51.537C33.9259 51.661 34.031 51.7615 34.1607 51.7615H36.7433C36.8729 51.7615 36.978 51.661 36.978 51.537V49.0668C36.978 48.9428 36.8729 48.8422 36.7433 48.8422Z" fill="#FDFDFD"/>
<path d="M35.8041 49.7405H35.0998C34.9701 49.7405 34.865 49.841 34.865 49.9651V50.6388C34.865 50.7628 34.9701 50.8633 35.0998 50.8633H35.8041C35.9338 50.8633 36.0389 50.7628 36.0389 50.6388V49.9651C36.0389 49.841 35.9338 49.7405 35.8041 49.7405Z" fill="#FDFDFD"/>
<path d="M41.6737 48.8422H39.0911C38.9614 48.8422 38.8563 48.9428 38.8563 49.0668V51.537C38.8563 51.661 38.9614 51.7615 39.0911 51.7615H41.6737C41.8033 51.7615 41.9084 51.661 41.9084 51.537V49.0668C41.9084 48.9428 41.8033 48.8422 41.6737 48.8422Z" fill="#FDFDFD"/>
<path d="M40.7345 49.7405H40.0302C39.9005 49.7405 39.7954 49.841 39.7954 49.9651V50.6388C39.7954 50.7628 39.9005 50.8633 40.0302 50.8633H40.7345C40.8642 50.8633 40.9693 50.7628 40.9693 50.6388V49.9651C40.9693 49.841 40.8642 49.7405 40.7345 49.7405Z" fill="#FDFDFD"/>
<path fill-rule="evenodd" clip-rule="evenodd" d="M35.1871 41.9316C34.8337 42.3556 34.5332 42.716 34.1113 42.5545C33.7394 42.2878 34.251 41.7394 34.7133 41.244C34.749 41.2058 34.7842 41.1679 34.819 41.1304C34.1505 40.5937 33.8444 40.1623 34.0432 39.9721C34.4421 39.5905 34.7868 39.935 35.188 40.3361C35.2653 40.4133 35.3449 40.4928 35.4273 40.5696C35.5097 40.4928 35.5893 40.4133 35.6668 40.3361C36.0678 39.935 36.4124 39.5905 36.8113 39.9721C37.0102 40.1623 36.704 40.5937 36.0358 41.1304C36.0703 41.1679 36.1058 41.2058 36.1412 41.244C36.6035 41.7394 37.1151 42.2878 36.7432 42.5545C36.3216 42.716 36.021 42.3556 35.6675 41.9316C35.5904 41.8393 35.5111 41.7441 35.4273 41.6504C35.3435 41.7441 35.2641 41.8393 35.1871 41.9316Z" fill="#FDFDFD"/>
<path fill-rule="evenodd" clip-rule="evenodd" d="M40.2948 41.9848C39.9415 42.4087 39.6407 42.7689 39.2191 42.6077C38.8472 42.3409 39.3588 41.7925 39.821 41.2972C39.8567 41.2588 39.892 41.221 39.9267 41.1835C39.2583 40.6468 38.9521 40.2152 39.151 40.0252C39.5499 39.6437 39.8945 39.9882 40.2958 40.3893C40.373 40.4665 40.4526 40.546 40.535 40.6228C40.6174 40.546 40.697 40.4665 40.7743 40.3893C41.1755 39.9882 41.5202 39.6437 41.919 40.0252C42.1179 40.2152 41.8118 40.6468 41.1433 41.1835C41.1781 41.221 41.2133 41.2588 41.249 41.2972C41.7113 41.7925 42.2229 42.3409 41.851 42.6077C41.4291 42.7689 41.1285 42.4087 40.7752 41.9848C40.6982 41.8925 40.6188 41.7973 40.535 41.7036C40.4512 41.7973 40.3718 41.8925 40.2948 41.9848Z" fill="#FDFDFD"/>
<path fill-rule="evenodd" clip-rule="evenodd" d="M40.2948 46.7006C39.9415 47.1245 39.6407 47.4847 39.2191 47.3235C38.8472 47.0567 39.3588 46.5083 39.821 46.013C39.8567 45.9746 39.892 45.9368 39.9267 45.8993C39.2583 45.3626 38.9521 44.931 39.151 44.741C39.5499 44.3595 39.8945 44.704 40.2958 45.1051C40.373 45.1823 40.4526 45.2618 40.535 45.3386C40.6174 45.2618 40.697 45.1823 40.7743 45.1051C41.1755 44.704 41.5202 44.3595 41.919 44.741C42.1179 44.931 41.8118 45.3626 41.1433 45.8993C41.1781 45.9368 41.2133 45.9746 41.249 46.013C41.7113 46.5083 42.2229 47.0567 41.851 47.3235C41.4291 47.4847 41.1285 47.1245 40.7752 46.7006C40.6982 46.6083 40.6188 46.5131 40.535 46.4194C40.4512 46.5131 40.3718 46.6083 40.2948 46.7006Z" fill="#FDFDFD"/>
<path fill-rule="evenodd" clip-rule="evenodd" d="M35.1297 46.7006C34.7763 47.1245 34.4756 47.4847 34.0539 47.3235C33.682 47.0567 34.1936 46.5083 34.6559 46.013C34.6916 45.9746 34.7268 45.9368 34.7615 45.8993C34.0931 45.3626 33.787 44.931 33.9858 44.741C34.3847 44.3595 34.7294 44.704 35.1306 45.1051C35.2078 45.1823 35.2874 45.2618 35.3698 45.3386C35.4522 45.2618 35.5318 45.1823 35.6091 45.1051C36.0103 44.704 36.355 44.3595 36.7539 44.741C36.9527 44.931 36.6466 45.3626 35.9782 45.8993C36.0129 45.9368 36.0481 45.9746 36.0838 46.013C36.5461 46.5083 37.0577 47.0567 36.6858 47.3235C36.2639 47.4847 35.9634 47.1245 35.61 46.7006C35.533 46.6083 35.4537 46.5131 35.3698 46.4194C35.286 46.5131 35.2067 46.6083 35.1297 46.7006Z" fill="#FDFDFD"/>
<path fill-rule="evenodd" clip-rule="evenodd" d="M30.1993 46.7006C29.8459 47.1245 29.5452 47.4847 29.1235 47.3235C28.7516 47.0567 29.2632 46.5083 29.7255 46.013C29.7612 45.9746 29.7964 45.9368 29.8311 45.8993C29.1627 45.3626 28.8566 44.931 29.0554 44.741C29.4543 44.3595 29.799 44.704 30.2002 45.1051C30.2774 45.1823 30.357 45.2618 30.4394 45.3386C30.5219 45.2618 30.6014 45.1823 30.6787 45.1051C31.0799 44.704 31.4246 44.3595 31.8235 44.741C32.0223 44.931 31.7162 45.3626 31.0478 45.8993C31.0825 45.9368 31.1177 45.9746 31.1534 46.013C31.6157 46.5083 32.1273 47.0567 31.7554 47.3235C31.3335 47.4847 31.033 47.1245 30.6796 46.7006C30.6026 46.6083 30.5233 46.5131 30.4394 46.4194C30.3556 46.5131 30.2763 46.6083 30.1993 46.7006Z" fill="#FDFDFD"/>
<path fill-rule="evenodd" clip-rule="evenodd" d="M45.2252 41.9848C44.8719 42.4087 44.5711 42.7689 44.1495 42.6077C43.7776 42.3409 44.2892 41.7925 44.7514 41.2972C44.7871 41.2588 44.8223 41.221 44.8571 41.1835C44.1887 40.6468 43.8825 40.2152 44.0814 40.0252C44.4803 39.6437 44.8249 39.9882 45.2262 40.3893C45.3034 40.4665 45.383 40.546 45.4654 40.6228C45.5478 40.546 45.6274 40.4665 45.7047 40.3893C46.1059 39.9882 46.4506 39.6437 46.8494 40.0252C47.0483 40.2152 46.7421 40.6468 46.0737 41.1835C46.1085 41.221 46.1437 41.2588 46.1794 41.2972C46.6417 41.7925 47.1533 42.3409 46.7814 42.6077C46.3595 42.7689 46.0589 42.4087 45.7056 41.9848C45.6286 41.8925 45.5492 41.7973 45.4654 41.7036C45.3816 41.7973 45.3022 41.8925 45.2252 41.9848Z" fill="#FDFDFD"/>
</svg>
